<?xml version="1.0" standalone="no"?>
<!DOCTYPE svg PUBLIC "-//W3C//DTD SVG 20010904//EN" "http://www.w3.org/TR/2001/REC-SVG-20010904/DTD/svg10.dtd">
<svg version="1.0" xmlns="http://www.w3.org/2000/svg" width="160.000000pt" height="160.000000pt"
    viewBox="0 0 160.000000 160.000000" preserveAspectRatio="xMidYMid meet">
    <metadata>
        Created by potrace 1.14, written by Peter Selinger 2001-2017
    </metadata>
    <g transform="translate(0.000000,160.000000) scale(0.100000,-0.100000)" fill="#000000" stroke="none">
        <path d="M695 1475 c-107 -24 -213 -86 -310 -180 -51 -50 -62 -56 -99 -56
-186 0 -298 -156 -248 -348 13 -51 62 -161 84 -188 6 -7 11 -59 13 -115 2
-110 4 -119 31 -188 34 -89 120 -182 202 -220 45 -22 60 -26 117 -35 85 -13
107 -20 189 -57 53 -24 105 -41 126 -41 21 0 73 17 126 41 80 36 109 45 194
57 204 29 348 214 348 448 0 83 3 92 40 165 90 173 88 315 -7 409 -52 53 -102
70 -208 72 -13 1 -45 24 -78 57 -87 85 -211 158 -310 180 -45 11 -163 10 -210
-1z" />
    </g>
</svg>